<svg xmlns='http://www.w3.org/2000/svg' width='400' height='400'>
      <defs><style>.cls-multipy{mix-blend-mode: multiply;}.cls-softlight{mix-blend-mode: soft-light;}.cls-overlay{mix-blend-mode: overlay;}.cls-colorburn{mix-blend-mode: color-burn;}.cls-screen{mix-blend-mode: screen;}.cls-lighten{ mix-blend-mode: darken;}</style>
      </defs><path fill="#ffc1b5" stroke="#000" stroke-miterlimit="10" stroke-width="5" d="M303.13,380v19.39H96.87V380c0-38.61,19.76-71.1,45.91-78.94a42.23,42.23,0,0,1,8.94-1.67h0c1.08-.09,2.16-.14,3.26-.14h90c1.1,0,2.18,0,3.26.14h0a42.32,42.32,0,0,1,12.16,2.78C285,311.65,303.13,343,303.13,380Z" class="canChange" style="fill:null"></path><path fill="#ffc1b5" stroke="#000" stroke-miterlimit="10" stroke-width="5" d="M311.59,187.33s53.56-48.67,44.87,6.95S312.69,238,312.69,238" class="canChange" style="fill:null"></path><path fill="none" stroke="#000" stroke-miterlimit="10" stroke-width="2" d="M345.49,178.08c-7.33,1.35-19.24,13.09-21.6,22a7.31,7.31,0,0,1,10.47-.63c3.17,2.78,4.94,8.41,4.24,13.5s-3.83,9.3-7.49,10.1"></path><path fill="#fff" d="M315.07,196.36c5.16-10.16,12.78-17.79,21.34-21.37,3-1.27,6.42-2,9.34-.19,4.05,2.51,6,9.35,5.7,15.49s-2.37,11.76-4.4,17.19c4.25-5.19,7.1-12.56,7.89-20.42.4-3.93.23-8.26-1.49-11.48A9.14,9.14,0,0,0,348,171a12.92,12.92,0,0,0-6.39,0c-10.12,2.14-19.41,10.61-24.85,22.65" class="cls-overlay"></path><path fill="#ffc1b5" stroke="#000" stroke-miterlimit="10" stroke-width="5" d="M88.41,187.33s-53.56-48.67-44.87,6.95S87.31,238,87.31,238" class="canChange" style="fill:null"></path><path fill="none" stroke="#000" stroke-miterlimit="10" stroke-width="2" d="M54.51,178.08c7.33,1.35,19.24,13.09,21.6,22a7.31,7.31,0,0,0-10.47-.63c-3.17,2.78-4.94,8.41-4.24,13.5s3.83,9.3,7.49,10.1"></path><path fill="#fff" d="M84.93,196.36C79.77,186.2,72.15,178.57,63.59,175c-3-1.27-6.42-2-9.34-.19-4,2.51-6,9.35-5.7,15.49s2.37,11.76,4.4,17.19c-4.25-5.19-7.1-12.56-7.89-20.42-.4-3.93-.23-8.26,1.49-11.48A9.14,9.14,0,0,1,52,171a12.92,12.92,0,0,1,6.39,0c10.12,2.14,19.41,10.61,24.85,22.65" class="cls-overlay"></path><circle fill="#ffc1b5" stroke="#000" stroke-miterlimit="10" stroke-width="5" cx="199.03" cy="179.39" r="129.04" class="canChange" style="fill:null"></circle><path fill="#fff" d="M79.76,187a128.71,128.71,0,0,0,45.12,98A129,129,0,1,1,283,81.38,129.06,129.06,0,0,0,79.76,187Z" class="cls-overlay"></path><path opacity="0.29" d="M328.31,179.39a129.06,129.06,0,0,1-252,39.18A129.08,129.08,0,0,0,312.47,117.39,128.45,128.45,0,0,1,328.31,179.39Z"></path><path fill="#9e6f57" stroke="#000" stroke-miterlimit="10" stroke-width="5" d="M326.69,160.44c-9.34-16.2-31-52.56-35.7-49.44-5.06,3.38-67.23,5.33-86.41,5.86h-.06l-3.93.1,1.41,0h-3l1.51,0c-11.45-.28-85-2.27-90.5-6-4.8-3.2-27.51,35.17-36.41,50.67-1.36,2.37-2.4,4.2-3,5.27a129,129,0,0,1,256.1-6.5Z" class="canChange" style="fill:null"></path><path fill="#fff" d="M230.66,54.26C192,53.21,98.49,61.39,73.59,161.67c-1.36,2.37-2.4,4.2-3,5.27A129.14,129.14,0,0,1,230.66,54.26Z" class="cls-overlay"></path><path opacity="0.29" d="M326.69,160.44c-9.34-16.2-31-52.56-35.7-49.44-5.06,3.38-67.23,5.33-86.41,5.86,12.28-.73,64.61-4.52,73.42-16.86,5.19-7.26-11.95-24.74-29.65-39.89A129.18,129.18,0,0,1,326.69,160.44Z"></path><path d="M159.51,148c-6.12-7.11-14.7-12.65-23.32-16.15-18.46-7.5-37.8-2.94-53.34,8.85-5.07,3.84-.09,12.53,5,8.64,13.73-10.42,30.1-14.82,46.32-7.53a52.85,52.85,0,0,1,18.23,13.26c4.21,4.89,11.25-2.21,7.07-7.07Z" class="canChange" style="fill:null"></path><path d="M249.68,158.34a53,53,0,0,1,18.23-13.26c16.21-7.31,32.6-2.88,46.32,7.53,5.13,3.88,10.12-4.8,5-8.64-15.55-11.79-34.89-16.35-53.35-8.85-8.62,3.5-17.2,9-23.32,16.15-4.18,4.86,2.86,12,7.07,7.07Z" class="canChange" style="fill:null"></path><path d="M94.19,178.53a155.1,155.1,0,0,1,25.25,4.11c13,3.15,29,8,36.79,19.76l2.82-3.67c-17.75-5.14-38.4-2.19-55.39,4-3,1.1-1.7,5.93,1.33,4.82,16.18-5.89,35.8-8.9,52.74-4,2,.59,4-1.83,2.82-3.67-8.22-12.4-23.93-18-37.71-21.54a162.52,162.52,0,0,0-28.65-4.81c-3.21-.22-3.2,4.78,0,5Z" class="canChange" style="fill:null"></path><path d="M301.39,172.53a161.46,161.46,0,0,0-28.65,4.81c-13.79,3.55-29.49,9.13-37.71,21.54-1.22,1.84.8,4.26,2.82,3.67,16.94-4.9,36.55-1.89,52.73,4,3,1.11,4.34-3.72,1.33-4.82-17-6.19-37.63-9.14-55.39-4l2.83,3.67c7.8-11.77,23.79-16.61,36.79-19.76a155.1,155.1,0,0,1,25.25-4.11c3.19-.22,3.22-5.22,0-5Z" class="canChange" style="fill:null"></path><path d="M166.81,258.44c11.66-8.52,25.49-14.92,40.25-12.54,9.19,1.48,17.29,6.1,24.65,11.61,1.55,1.15,3-1.45,1.51-2.6-8.09-6-17.08-10.91-27.25-12.17-14.92-1.86-28.87,4.48-40.67,13.11-1.54,1.13-.05,3.73,1.51,2.59Z"></path><path fill="#961c1c" stroke="#000" stroke-miterlimit="10" stroke-width="5" d="M305.79,378.24V400H94.7V378.24c0-43.32,20.22-79.77,47-88.57a39.71,39.71,0,0,1,9.14-1.88h0c1.11-.1,2.21-.16,3.34-.16h92.13c1.12,0,2.22.06,3.33.16h0a40.61,40.61,0,0,1,12.45,3.12C287.21,301.5,305.79,336.72,305.79,378.24Z" class="canChange" style="fill:rgb(255, 255, 255)"></path><path opacity="0.29" d="M261.23,290.28c-13.24,9.16-34.89,15.13-59.36,15.13-25.54,0-48-6.51-61.06-16.38a40.33,40.33,0,0,1,9.15-1.88h0c1.11-.1,2.21-.15,3.33-.15h92.13c1.13,0,2.23.05,3.34.15h0A40.49,40.49,0,0,1,261.23,290.28Z"></path><path fill="#961c1c" stroke="#000" stroke-miterlimit="10" stroke-width="5" d="M272.61,354.56v44.88l30.84-.07S314,267,270.88,296.21l-.51,9" class="canChange" style="fill:rgb(255, 255, 255)"></path><path fill="#961c1c" stroke="#000" stroke-miterlimit="10" stroke-width="5" d="M126.69,354.56v44.88l-30.83-.07S85.29,267,128.43,296.21l-.56,12.34" class="canChange" style="fill:rgb(255, 255, 255)"></path><path fill="#fff" d="M127.87,296.21s-21.88,1.68-23,27.49-2.24,75.18-2.24,75.18l-8.42.56,2.2-66.89,9.21-33.29S114.41,289.48,127.87,296.21Z" class="cls-overlay"></path><g opacity="0.29"><path d="M269.81,295.65s25.81,14.59,25.81,57.22-2.27,46.5-2.27,46.5l12.37.63s1.06-70.88-6.21-86.49S285.52,282.19,269.81,295.65Z"></path></g></svg>