<svg xmlns='http://www.w3.org/2000/svg' width='400' height='400'>
      <defs><style>.cls-multipy{mix-blend-mode: multiply;}.cls-softlight{mix-blend-mode: soft-light;}.cls-overlay{mix-blend-mode: overlay;}.cls-colorburn{mix-blend-mode: color-burn;}.cls-screen{mix-blend-mode: screen;}.cls-lighten{ mix-blend-mode: darken;}</style>
      </defs><path fill="#ffc1b5" stroke="#000" stroke-miterlimit="10" stroke-width="5" d="M303.13,380v19.39H96.87V380c0-38.61,19.76-71.1,45.91-78.94a42.23,42.23,0,0,1,8.94-1.67h0c1.08-.09,2.16-.14,3.26-.14h90c1.1,0,2.18,0,3.26.14h0a42.32,42.32,0,0,1,12.16,2.78C285,311.65,303.13,343,303.13,380Z" class="canChange" style="fill:null"></path><path fill="#ffc1b5" stroke="#000" stroke-miterlimit="10" stroke-width="5" d="M311.59,187.33s53.56-48.67,44.87,6.95S312.69,238,312.69,238" class="canChange" style="fill:null"></path><path fill="none" stroke="#000" stroke-miterlimit="10" stroke-width="2" d="M345.49,178.08c-7.33,1.35-19.24,13.09-21.6,22a7.31,7.31,0,0,1,10.47-.63c3.17,2.78,4.94,8.41,4.24,13.5s-3.83,9.3-7.49,10.1"></path><path fill="#fff" d="M315.07,196.36c5.16-10.16,12.78-17.79,21.34-21.37,3-1.27,6.42-2,9.34-.19,4.05,2.51,6,9.35,5.7,15.49s-2.37,11.76-4.4,17.19c4.25-5.19,7.1-12.56,7.89-20.42.4-3.93.23-8.26-1.49-11.48A9.14,9.14,0,0,0,348,171a12.92,12.92,0,0,0-6.39,0c-10.12,2.14-19.41,10.61-24.85,22.65" class="cls-overlay"></path><path fill="#ffc1b5" stroke="#000" stroke-miterlimit="10" stroke-width="5" d="M88.41,187.33s-53.56-48.67-44.87,6.95S87.31,238,87.31,238" class="canChange" style="fill:null"></path><path fill="none" stroke="#000" stroke-miterlimit="10" stroke-width="2" d="M54.51,178.08c7.33,1.35,19.24,13.09,21.6,22a7.31,7.31,0,0,0-10.47-.63c-3.17,2.78-4.94,8.41-4.24,13.5s3.83,9.3,7.49,10.1"></path><path fill="#fff" d="M84.93,196.36C79.77,186.2,72.15,178.57,63.59,175c-3-1.27-6.42-2-9.34-.19-4,2.51-6,9.35-5.7,15.49s2.37,11.76,4.4,17.19c-4.25-5.19-7.1-12.56-7.89-20.42-.4-3.93-.23-8.26,1.49-11.48A9.14,9.14,0,0,1,52,171a12.92,12.92,0,0,1,6.39,0c10.12,2.14,19.41,10.61,24.85,22.65" class="cls-overlay"></path><circle fill="#ffc1b5" stroke="#000" stroke-miterlimit="10" stroke-width="5" cx="199.03" cy="179.39" r="129.04" class="canChange" style="fill:null"></circle><path fill="#fff" d="M79.76,187a128.71,128.71,0,0,0,45.12,98A129,129,0,1,1,283,81.38,129.06,129.06,0,0,0,79.76,187Z" class="cls-overlay"></path><path opacity="0.29" d="M328.31,179.39a129.06,129.06,0,0,1-252,39.18A129.08,129.08,0,0,0,312.47,117.39,128.45,128.45,0,0,1,328.31,179.39Z"></path><path fill="#9e6f57" stroke="#000" stroke-miterlimit="10" stroke-width="5" d="M326.69,160.44c-9.34-16.2-31-52.56-35.7-49.44-5.06,3.38-67.23,5.33-86.41,5.86h-.06l-3.93.1,1.41,0h-3l1.51,0c-11.45-.28-85-2.27-90.5-6-4.8-3.2-27.51,35.17-36.41,50.67-1.36,2.37-2.4,4.2-3,5.27a129,129,0,0,1,256.1-6.5Z" class="canChange" style="fill:null"></path><path fill="#fff" d="M230.66,54.26C192,53.21,98.49,61.39,73.59,161.67c-1.36,2.37-2.4,4.2-3,5.27A129.14,129.14,0,0,1,230.66,54.26Z" class="cls-overlay"></path><path opacity="0.29" d="M326.69,160.44c-9.34-16.2-31-52.56-35.7-49.44-5.06,3.38-67.23,5.33-86.41,5.86,12.28-.73,64.61-4.52,73.42-16.86,5.19-7.26-11.95-24.74-29.65-39.89A129.18,129.18,0,0,1,326.69,160.44Z"></path><path d="M159.51,148c-6.12-7.11-14.7-12.65-23.32-16.15-18.46-7.5-37.8-2.94-53.34,8.85-5.07,3.84-.09,12.53,5,8.64,13.73-10.42,30.1-14.82,46.32-7.53a52.85,52.85,0,0,1,18.23,13.26c4.21,4.89,11.25-2.21,7.07-7.07Z" class="canChange" style="fill:null"></path><path d="M249.68,158.34a53,53,0,0,1,18.23-13.26c16.21-7.31,32.6-2.88,46.32,7.53,5.13,3.88,10.12-4.8,5-8.64-15.55-11.79-34.89-16.35-53.35-8.85-8.62,3.5-17.2,9-23.32,16.15-4.18,4.86,2.86,12,7.07,7.07Z" class="canChange" style="fill:null"></path><ellipse opacity="0.29" cx="277.91" cy="192.44" rx="42.09" ry="43.67"></ellipse><ellipse fill="#fff" cx="277.11" cy="190.24" rx="40.59" ry="42.17"></ellipse><path d="M277.11,149.57c21.55,0,39.09,18.25,39.09,40.67s-17.54,40.67-39.09,40.67S238,212.66,238,190.24s17.53-40.67,39.09-40.67m0-3c-23.25,0-42.09,19.55-42.09,43.67s18.84,43.67,42.09,43.67,42.09-19.55,42.09-43.67-18.85-43.67-42.09-43.67Z"></path><path opacity="0.29" d="M319.19,190.24c0,24.12-18.84,43.66-42.09,43.66A41.47,41.47,0,0,1,243.82,217a52.93,52.93,0,0,0,16.33,2.57c26.18,0,47.4-18.92,47.4-42.25a39,39,0,0,0-8.75-24.47A44,44,0,0,1,319.19,190.24Z"></path><ellipse cx="278.35" cy="190.42" rx="22.69" ry="23.66" transform="translate(77 460.96) rotate(-87.72)" class="canChange" style="fill:null"></ellipse><ellipse fill="#f2f2f2" cx="266.16" cy="177.12" rx="6.99" ry="7.07"></ellipse><ellipse fill="#f2f2f2" cx="262.16" cy="193.3" rx="8.99" ry="9.1"></ellipse><ellipse opacity="0.29" cx="122.09" cy="194.44" rx="42.09" ry="43.67"></ellipse><ellipse fill="#fff" cx="122.89" cy="192.24" rx="40.59" ry="42.17"></ellipse><path d="M122.89,151.57c21.56,0,39.09,18.25,39.09,40.67s-17.53,40.67-39.09,40.67S83.8,214.66,83.8,192.24s17.54-40.67,39.09-40.67m0-3c-23.24,0-42.09,19.55-42.09,43.67s18.85,43.67,42.09,43.67S165,216.36,165,192.24s-18.84-43.67-42.09-43.67Z"></path><path opacity="0.29" d="M166.18,192.24c0,24.12-18.84,43.66-42.09,43.66A41.47,41.47,0,0,1,90.81,219a52.93,52.93,0,0,0,16.33,2.57c26.18,0,47.4-18.92,47.4-42.25a39,39,0,0,0-8.75-24.47A44,44,0,0,1,166.18,192.24Z"></path><ellipse cx="123.35" cy="190.42" rx="22.69" ry="23.66" transform="translate(-71.83 306.08) rotate(-87.72)" class="canChange" style="fill:null"></ellipse><ellipse fill="#f2f2f2" cx="111.16" cy="177.12" rx="6.99" ry="7.07"></ellipse><ellipse fill="#f2f2f2" cx="107.16" cy="193.3" rx="8.99" ry="9.1"></ellipse><path fill="#2e0f0e" stroke="#000" stroke-miterlimit="10" stroke-width="5" d="M215.24,271.93l-.35-.08-1.84-.48c-.77-.23-1.47-.44-2.14-.66-.95-.31-1.81-.62-2.6-.91a31,31,0,0,0-4.7-1.45h0l-.73-.11a9.76,9.76,0,0,0-1.54-.07c-2.88.08-6.3,1.42-12.27,5.13a10.68,10.68,0,0,1-2.92,1.3,6.65,6.65,0,0,1-4.56-.36l-.48-.24c-8-4.41-10.12-25.14-1.81-35.39a.94.94,0,0,1,.09-.12c3.31-4,8.11-6,12.28-3.11,2.88,2,4.44,6.43,7.25,8.54a5.73,5.73,0,0,0,1.14.68c6.85,3.13,15-12.68,21.23-6.12a9.14,9.14,0,0,1,1.13,1.46C228.81,250,226.76,274.25,215.24,271.93Z"></path><path fill="#fff" d="M221.29,238.48c-.79,3.48-1.67,7.38-2.34,10.47-.53,2.46-.93,4.4-1,5.22-.49,3.31-25.5,2.65-32.37,0-2.61-1-4.16-4.21-5.07-7.8a44.78,44.78,0,0,1-1.16-7.76.94.94,0,0,1,.09-.12c3.31-4,8.11-6,12.28-3.11,2.88,2,4.44,6.43,7.25,8.54a5.73,5.73,0,0,0,1.14.68C206.91,247.73,215,231.92,221.29,238.48Z"></path><path opacity="0.18" d="M221.29,238.48c-.79,3.48-1.67,7.38-2.34,10.47-8.28-4.27-30.9-3.11-38.49-2.58a44.78,44.78,0,0,1-1.16-7.76.94.94,0,0,1,.09-.12c3.31-4,8.11-6,12.28-3.11,2.88,2,4.44,6.43,7.25,8.54a5.73,5.73,0,0,0,1.14.68C206.91,247.73,215,231.92,221.29,238.48Z"></path><path fill="#c74d5a" d="M186,274.53a5.57,5.57,0,0,1-4.86-.93c.12.17.25.33.38.49C183,274.69,184.46,275.33,186,274.53Z"></path><path fill="#c74d5a" d="M185.79,274.81l.17,0,0,0Z"></path><path fill="#c74d5a" d="M185.38,274.91a2.73,2.73,0,0,1,.41-.1A.47.47,0,0,0,185.38,274.91Z"></path><path fill="#c74d5a" d="M200.11,264l-.29.06-1.83.43s-12.71-12.53-22.17.89a53.34,53.34,0,0,0,5.27,8.18,5.08,5.08,0,0,0,3.74,1.08,1.58,1.58,0,0,1,0-.34,1.58,1.58,0,0,0,0,.34,10.74,10.74,0,0,0,1.12-.15l.32-.19-.32.19.81-.19v.07a11.51,11.51,0,0,0,2.31-1.11c6-3.71,9.39-5.05,12.27-5.13.14.07.28.14.41.22H203l-.1-.15.73.11h0a31,31,0,0,1,4.7,1.45c.79.29,1.65.6,2.6.91.67.22,1.37.43,2.14.66C210.44,266.9,206.27,262.72,200.11,264Z"></path><path fill="#c74d5a" d="M186,274.53a3.17,3.17,0,0,1-1,.33c.1.12.27.1.46.05a.47.47,0,0,1,.41-.1h.2l.16-.21.61-.19v-.07Z"></path><path d="M205.32,268.13a6.46,6.46,0,0,0-2.95-2.55,15.88,15.88,0,0,0-3.89-1.11,5.62,5.62,0,0,1,4.31.21,4.9,4.9,0,0,1,1.78,1.38A3.22,3.22,0,0,1,205.32,268.13Z"></path><path opacity="0.18" d="M204,268.45a14,14,0,0,0-2.64-1.39c-6.09-2.36-11.47,1.25-15.19,5.16-.68.71-1.29,1.42-1.85,2.12a35,35,0,0,1-2.71-2.41,43.43,43.43,0,0,1-5.77-7.07c9.46-10.78,22.17-.72,22.17-.72l1.83-.35.29,0,1,1.25,1.74,2.12Z"></path><path fill="#fff" opacity="0.49" d="M210.91,270.71c-.95-.31-1.81-.62-2.6-.91C208.91,268.34,210,269.34,210.91,270.71Z"></path><path fill="#fff" d="M215.24,271.93l-.35-.08-1.84-.48c-.77-.23-1.47-.44-2.14-.66-.95-.31-1.81-.62-2.6-.91a31,31,0,0,0-4.7-1.45h0l-.73-.11a9.76,9.76,0,0,0-1.54-.07c-2.88.08-6.3,1.42-12.27,5.13a10.68,10.68,0,0,1-2.92,1.3,6.65,6.65,0,0,1-4.56-.36l-.48-.24c.31-3.54,1-8.2,2.22-6.94,2,2,29.91-2,31.38,0C215.47,268.09,215.45,270.16,215.24,271.93Z"></path><path fill="#961c1c" stroke="#000" stroke-miterlimit="10" stroke-width="5" d="M305.79,378.24V400H94.7V378.24c0-43.32,20.22-79.77,47-88.57a39.71,39.71,0,0,1,9.14-1.88h0c1.11-.1,2.21-.16,3.34-.16h92.13c1.12,0,2.22.06,3.33.16h0a40.61,40.61,0,0,1,12.45,3.12C287.21,301.5,305.79,336.72,305.79,378.24Z" class="canChange" style="fill:rgb(255, 255, 255)"></path><path opacity="0.29" d="M261.23,290.28c-13.24,9.16-34.89,15.13-59.36,15.13-25.54,0-48-6.51-61.06-16.38a40.33,40.33,0,0,1,9.15-1.88h0c1.11-.1,2.21-.15,3.33-.15h92.13c1.13,0,2.23.05,3.34.15h0A40.49,40.49,0,0,1,261.23,290.28Z"></path><path fill="#961c1c" stroke="#000" stroke-miterlimit="10" stroke-width="5" d="M272.61,354.56v44.88l30.84-.07S314,267,270.88,296.21l-.51,9" class="canChange" style="fill:rgb(255, 255, 255)"></path><path fill="#961c1c" stroke="#000" stroke-miterlimit="10" stroke-width="5" d="M126.69,354.56v44.88l-30.83-.07S85.29,267,128.43,296.21l-.56,12.34" class="canChange" style="fill:rgb(255, 255, 255)"></path><path fill="#fff" d="M127.87,296.21s-21.88,1.68-23,27.49-2.24,75.18-2.24,75.18l-8.42.56,2.2-66.89,9.21-33.29S114.41,289.48,127.87,296.21Z" class="cls-overlay"></path><g opacity="0.29"><path d="M269.81,295.65s25.81,14.59,25.81,57.22-2.27,46.5-2.27,46.5l12.37.63s1.06-70.88-6.21-86.49S285.52,282.19,269.81,295.65Z"></path></g></svg>