<svg data-v-423bf9ae="" xmlns="http://www.w3.org/2000/svg" viewBox="0 0 232 90" class="iconLeft"><!----><!----><!----><g data-v-423bf9ae="" id="042b4afc-5e0e-47c9-bfe2-f3fc6c033dac" fill="#ffffff" transform="matrix(6.444683506104438,0,0,6.444683506104438,104.58646412913559,-11.165415142853426)"><path d="M6.86 8.54C6.86 7.08 6.17 6.05 4.90 6.05C4.09 6.05 3.46 6.43 2.91 6.92C2.73 6.38 2.35 6.08 1.76 6.08L0.94 6.08L0.84 6.17L0.84 13.16C1.15 13.22 1.57 13.24 1.93 13.24C2.31 13.24 2.72 13.22 3.02 13.16L3.02 8.48C3.39 8.15 3.78 8.01 4.06 8.01C4.54 8.01 4.66 8.30 4.66 8.93L4.66 11.91C4.66 12.80 4.96 13.27 5.84 13.27C6.38 13.27 6.87 13.08 7.20 12.80C6.94 12.45 6.86 11.96 6.86 11.41ZM14.43 12.15C14.15 11.96 14.04 11.65 14.04 11.24L14.04 8.40C14.04 6.62 12.77 6.01 11.55 6.01C10.64 6.01 9.28 6.24 8.34 6.62C8.40 7.17 8.57 7.78 8.88 8.15C9.60 7.92 10.33 7.70 10.93 7.70C11.56 7.70 11.84 7.99 11.84 8.58L11.84 8.85C11.48 8.82 11.10 8.82 10.85 8.82C9.41 8.82 8.08 9.56 8.08 11.24C8.08 12.25 8.76 13.37 10.21 13.37C11.12 13.37 11.76 12.99 12.25 12.53C12.56 12.94 13.05 13.26 13.76 13.27C14.04 13.06 14.35 12.53 14.43 12.15ZM10.85 11.76C10.46 11.76 10.21 11.48 10.21 11.10C10.21 10.57 10.46 10.21 11.09 10.21C11.28 10.21 11.56 10.22 11.84 10.23L11.84 11.35C11.52 11.62 11.17 11.76 10.85 11.76ZM19.67 6.16L18.00 6.19L18.00 4.16L17.91 4.06L17.05 4.06C16.20 4.06 15.86 4.41 15.86 5.38L15.86 6.19L14.77 6.16C14.70 6.43 14.67 6.68 14.67 6.92C14.67 7.20 14.70 7.46 14.77 7.71L15.86 7.70L15.86 11.28C15.86 12.61 16.45 13.23 17.72 13.23C18.27 13.23 19.01 13.16 19.53 13.09C19.57 12.95 19.59 12.77 19.59 12.60C19.59 12.26 19.52 11.87 19.40 11.56L18.62 11.56C18.19 11.56 18.00 11.33 18.00 10.91L18.00 7.69L19.67 7.71C19.73 7.46 19.75 7.20 19.75 6.92C19.75 6.68 19.73 6.43 19.67 6.16Z"></path></g><!----><g data-v-423bf9ae="" id="9e14bf42-d333-4c14-87be-f978ec46d9a5" transform="matrix(2.8125,0,0,2.8125,0,0)" stroke="none" fill="#ffffff"><path d="M9.382 8.675h13.943v13.943L32 31.293V0H.707zM22.618 23.325H8.675V9.382L0 .707V32h31.293z"></path></g><!----></svg>